<svg width="24" height="14" viewBox="0 0 24 14" fill="none" xmlns="http://www.w3.org/2000/svg">
<path d="M12.6867 12.9618L12.688 12.9605L22.9006 2.69116C23.0024 2.59486 23.0846 2.47837 23.1436 2.3493C23.2032 2.21881 23.2383 2.0773 23.2475 1.93308C23.2568 1.78886 23.24 1.64374 23.1979 1.50605C23.1557 1.36834 23.0888 1.23991 22.9998 1.12884C22.9108 1.01771 22.8012 0.925853 22.6765 0.860277C22.5517 0.794637 22.415 0.757072 22.2748 0.750917C22.1345 0.744761 21.9952 0.770236 21.8655 0.82503C21.7371 0.879266 21.6216 0.960698 21.525 1.06301L12 10.6374L2.47499 1.06298C2.37835 0.960682 2.26287 0.87926 2.13448 0.82503C2.00479 0.770247 1.86548 0.744743 1.7252 0.7509C1.58494 0.757056 1.44828 0.79465 1.3235 0.860277C1.19883 0.925853 1.08922 1.01771 1.0002 1.12884C0.911211 1.23991 0.844261 1.36834 0.802129 1.50605C0.760003 1.64374 0.743235 1.78886 0.752459 1.93308C0.761682 2.0773 0.796784 2.21881 0.856414 2.3493C0.915396 2.47837 0.997572 2.59487 1.09939 2.69116L11.312 12.9605L11.3132 12.9617C11.4127 13.0603 11.5303 13.1375 11.6599 13.1872C11.7894 13.2368 11.9273 13.2575 12.0653 13.2476C12.2998 13.2318 12.5181 13.1288 12.6867 12.9618Z" fill="#262626" stroke="#262626" stroke-width="0.5"/>
</svg>
